<svg xmlns="http://www.w3.org/2000/svg" xmlns:xlink="http://www.w3.org/1999/xlink" viewBox="0 0 2483.12 1186.13"><defs><style>.cls-1{fill:url(#linear-gradient);}.cls-2{fill:#fff;}.cls-3{fill:#e8e8e8;}</style><linearGradient id="linear-gradient" x1="416.08" y1="1171.33" x2="416.08" y2="-61.7" gradientUnits="userSpaceOnUse"><stop offset="0" stop-color="#f03"/><stop offset="1" stop-color="#ff3e58"/></linearGradient></defs><title>logo</title><g id="Layer_2" data-name="Layer 2"><g id="Layer_1-2" data-name="Layer 1"><path d="M1307,704.26q-36.15,37.07-105.45,53.33,37.35,10.24,56.64,33.44a81.05,81.05,0,0,1,19.28,53.32q0,47.61-29.82,82.55t-87.07,53.93q-57.25,19-138,19-30.13,0-48.2-1.81-.6,16.88-14.46,25.31t-35.55,8.44q-21.69,0-29.83-9.64t-6.93-28.32a1722.35,1722.35,0,0,1,21.09-176.85,1743,1743,0,0,1,39.77-178.66q4.21-15.06,16.87-21.09t33.14-6q36.75,0,36.76,20.48a61.89,61.89,0,0,1-3.62,19.28q-15.67,47-31.33,127.44A1523.34,1523.34,0,0,0,978,931.72q28.92,2.41,47,2.41,84.36,0,123.83-24.4t39.47-62.36q0-26.52-22.6-44.59t-75.62-19.89c-8-.39-13.66-2.41-16.87-6s-4.82-9.44-4.82-17.48q0-17.46,7.23-28.32t26.51-11.44q42.78-1.2,77.43-12.66t54.53-32.23q19.89-20.79,19.88-48.51,0-34.93-34.34-55.13t-105.45-20.19a468.49,468.49,0,0,0-124.73,16.57Q929.17,584.05,887,609.36q-19.29,11.45-32.54,11.45-10.85,0-16.57-7.53t-5.72-19q0-15.06,6.32-25.91t30.43-24.71q50.63-28.92,118.71-45.19a596.56,596.56,0,0,1,139.19-16.27q109.05,0,162.68,36.76t53.63,97Q1343.12,667.2,1307,704.26Z"/><path d="M1352.46,976.91q-17.78-27.7-17.77-73.51,0-27.1,6.93-69.59a648.5,648.5,0,0,1,17.77-79.24q5.43-19.27,14.47-26.51t28.92-7.23q30.73,0,30.73,20.49,0,15.06-11.45,69.89-14.46,66.3-14.46,89.78,0,18.07,4.82,27.72t16.27,9.64q10.85,0,27.11-15.06t43.39-47.6q7.23-8.43,16.26-8.44,7.83,0,12.36,7.23t4.52,19.89q0,24.11-11.45,37.35-59.66,72.91-111.47,72.91Q1370.23,1004.63,1352.46,976.91Zm23.81-307.6q-12.66-11.74-12.66-32.84t16.57-35.25q16.58-14.15,41.28-14.16,22.27,0,36.15,10.85t13.86,30.73q0,24.11-15.67,38.26t-41.57,14.16Q1388.91,681.06,1376.27,669.31Z"/><path d="M1724.23,874.48q4.51,7.23,4.52,19.89,0,24.11-11.45,37.35-25.9,31.95-56.34,52.43t-69,20.48q-53,0-78.63-48.2T1487.73,831.7q0-73.5,19-167.51t56-161.48q37.05-67.48,88.27-67.49,28.92,0,45.49,26.82t16.57,76.82q0,71.71-39.76,166.3t-107.86,187.4q4.2,24.71,13.86,35.25t25.31,10.54q24.69,0,43.38-14.16t47.6-48.5q7.23-8.43,16.27-8.44C1717.09,867.25,1721.22,869.66,1724.23,874.48Zm-117.8-329.59Q1589,594.9,1575.7,669t-14.46,142.2q42.78-70.5,68.09-141.3t25.31-129.24q0-45.78-16.87-45.8Q1623.9,494.87,1606.43,544.89Z"/><path d="M1999.29,824.47q4.2,7.83,4.22,19.88,0,28.93-17.48,34.35-36.15,12.64-79.53,14.46-11.46,50.61-45.2,81t-76.52,30.43q-36.15,0-61.76-17.47a111,111,0,0,1-38.87-46.4q-13.26-28.92-13.25-62.66,0-45.79,17.47-81.65t48.21-56a121.39,121.39,0,0,1,68.08-20.18q45.79,0,73.82,31.63t32.84,78q28.31-1.8,67.48-12a35.56,35.56,0,0,1,8.44-1.2Q1995.06,816.64,1999.29,824.47ZM1823,925.1q14.16-15.68,19-45.2a83.16,83.16,0,0,1-28.62-33.14,98,98,0,0,1-9.94-43.38,104.06,104.06,0,0,1,1.81-19.28h-3q-24.11,0-40.07,23.2t-16,65.37q0,33.15,13,50.62t30.43,17.47Q1808.88,940.76,1823,925.1Z"/><path d="M1962.23,980.53q-9.36-24.09-9.34-77.13,0-78.31,22.29-148.83,5.43-17.46,17.78-25.6t34.64-8.14q12,0,16.87,3t4.82,11.45q0,9.65-9,43.39-6,24.11-9.64,42.17a427.75,427.75,0,0,0-6,44.59q19.89-51.81,44.59-84.35t48.5-46.4q23.81-13.86,43.69-13.86,39.16,0,39.16,39.17,0,23.49-13.25,85-11.46,52.41-11.45,69.29,0,24.11,17.47,24.1,12,0,28.62-14.76t44.29-47.9q7.23-8.43,16.27-8.44,7.83,0,12.35,7.23t4.52,19.89q0,24.11-11.45,37.35-25.91,31.95-55.73,52.43t-67.79,20.48q-30.74,0-46.39-17.77t-15.67-51.52q0-16.86,8.43-60.26,7.83-38,7.84-52.42c0-6.42-2.22-9.64-6.63-9.64q-7.85,0-22,20.19T2061,886.53a415.7,415.7,0,0,0-23.8,69.9q-6.63,28.32-15.36,38.26t-27.42,9.94Q1971.56,1004.63,1962.23,980.53Z"/><path d="M2291.81,986.86a110.44,110.44,0,0,1-37.66-46.7,153.21,153.21,0,0,1-12.65-62.06q0-45.79,17.17-81.65t46.7-56q29.52-20.17,66.28-20.18,35.55,0,60.86,17.77a109.69,109.69,0,0,1,38,46.7,153.25,153.25,0,0,1,12.65,62.06q0,45.81-17.47,81.65t-47.3,56a115.17,115.17,0,0,1-66,20.18Q2316.8,1004.63,2291.81,986.86Zm101.83-69.6q14.16-22.28,14.16-65.07,0-33.13-12.05-50t-28.92-16.87q-21.69,0-35.85,22t-14.16,65.37q0,34.35,12,50.62T2359,939.56Q2379.48,939.56,2393.64,917.26Z"/><path class="cls-1" d="M731.51,746.18A370.44,370.44,0,0,1,738.3,817c0,203.86-165.27,369.13-369.14,369.13S0,1020.86,0,817A368.46,368.46,0,0,1,18.32,701.83C47.52,559.51,209.94,411.44,263,356c54.63-57.06,89.59-162,89.59-162,65.55,68.46,68.16,109.54,68.16,109.54s56.38-89,194-155.19S826.72,0,826.72,0s41.52,121-104.87,283c-78.51,86.91-114.93,175.12-131.8,238.24-14.59,54.59-14.59,90.38-14.59,90.38,24-12.07,42.17-34.33,54.93-55.43a253.42,253.42,0,0,0,23.73-51.83s40.23,20.48,77.39,241.84Z"/><ellipse class="cls-2" cx="353.51" cy="946.66" rx="259.95" ry="190.45"/><path d="M444.5,974.09,457.39,957A42.88,42.88,0,0,1,527,958.42l11.56,16.79c8.43,12.25-7.42,26.53-18.73,16.88h0a44.48,44.48,0,0,0-56.72-.83l-.46.38C451,1001,435.5,986.05,444.5,974.09Z"/><path d="M178.25,974.09,191.14,957a42.88,42.88,0,0,1,69.59,1.47l11.56,16.79c8.43,12.25-7.42,26.53-18.73,16.88h0a44.47,44.47,0,0,0-56.71-.83l-.47.38C184.71,1001,169.25,986.05,178.25,974.09Z"/><path class="cls-3" d="M613.45,946.66c0,1.7,14.12-161.55-259.94-161.28-232,.22-258.07,187.14-259.36,174.18a118.14,118.14,0,0,1-.59-12.9c0-105.18,116.38-190.45,260-190.45S613.45,841.48,613.45,946.66Z"/></g></g></svg>