<svg xmlns="http://www.w3.org/2000/svg" viewBox="0 0 566.19 566.03"><defs><style>.cls-1{fill:#ff3e58;}</style></defs><title>Asset 37</title><g id="Layer_2" data-name="Layer 2"><g id="Layer_1-2" data-name="Layer 1"><path class="cls-1" d="M315.28,557.16H6.06V513.83c0-69.26,31-113.68,100.22-113.68l55.08,52.67c79.15-109.82,153.92-6.45,153.92,65Z"/><path class="cls-1" d="M221.77,296.68,96.44,301.1l2.76-13.25c7.08-21.54.86-55.47,23.19-57.43L160.67,220c71.48,0,61.1,5.16,61.1,76.64Z"/><rect class="cls-1" x="384.84" y="376.74" width="159.24" height="180.43"/><path class="cls-1" d="M446.38,77.54c-21.25,71.93-45.15,52.91-100.85,52.91-93.6,0-70.89-7.37-94.57-58.43-5.93-12.79-19.11-45.85-2-55.33,18.38-10.19,67.73,7.93,96.57,7.93,34,0,94-16,112.25-2.52C469.47,30.74,449.61,66.6,446.38,77.54Z"/><path d="M438.56,125.12l39.82-93.65a11.06,11.06,0,0,0-4.53-13.84L454.31,6a42.71,42.71,0,0,0-48.69,3.62l-3,2.46a20.52,20.52,0,0,1-25.89,0l-.12-.1a42.71,42.71,0,0,0-53.93.05,20.53,20.53,0,0,1-25.92,0l-3.06-2.5a42.74,42.74,0,0,0-48.53-3.72l-20.06,11.8a11.06,11.06,0,0,0-4.56,13.89L260.6,125a136.87,136.87,0,0,0-70,56.78,11.06,11.06,0,0,0,18.83,11.62,114.7,114.7,0,0,1,60.37-48.24h159.2a114.3,114.3,0,0,1,77.43,108.39v29.34a11.06,11.06,0,0,0,22.12,0V253.59A136.35,136.35,0,0,0,438.56,125.12Zm-23.17-2H283.82L244.69,31.77l11.67-6.86a20.53,20.53,0,0,1,23.33,1.79l3.06,2.5a42.72,42.72,0,0,0,53.93,0,20.53,20.53,0,0,1,25.93,0l.12.1a42.71,42.71,0,0,0,53.86,0l3-2.46A20.52,20.52,0,0,1,443,25l11.23,6.68Z"/><path d="M525.36,316.89a11.06,11.06,0,1,0,3.24,7.82A11.14,11.14,0,0,0,525.36,316.89Z"/><path d="M169.17,493.21a11,11,0,1,0,3.24,7.82A11.12,11.12,0,0,0,169.17,493.21Z"/><path d="M566.19,462.08a41.94,41.94,0,0,0-13.64-31,42,42,0,0,0-28.38-73H404.74a42,42,0,0,0-28.37,73,41.95,41.95,0,0,0,0,61.93,42,42,0,0,0-8.63,50.87h-45V500.67A112.39,112.39,0,0,0,220.59,388.89a11,11,0,0,0-4.78-.33l-.55,0a77,77,0,0,0,23.29-55.19V223.22a11.06,11.06,0,0,0-11.06-11.06H145.57a61.46,61.46,0,0,0-61.4,61.4v59.79a76.91,76.91,0,0,0,23.29,55.18l-.56,0a10.85,10.85,0,0,0-4.77.33A112.39,112.39,0,0,0,0,500.67V555A11.06,11.06,0,0,0,11.06,566H524.17a42,42,0,0,0,28.38-73A41.92,41.92,0,0,0,566.19,462.08Zm-459.91-173V273.56a39.34,39.34,0,0,1,39.29-39.29h70.86v29.6A27.16,27.16,0,0,1,189.31,291h-83Zm0,44.3V313.1h83a48.92,48.92,0,0,0,27.12-8.17v28.42a55.08,55.08,0,1,1-110.15,0Zm84.44,77.19-29.36,29.37L132,410.54ZM300.6,543.91H22.12V512.09h90.24a11.06,11.06,0,0,0,0-22.12H22.77a90.29,90.29,0,0,1,78.62-78.75l52.15,52.15a11.06,11.06,0,0,0,15.64,0l52.15-52.15a90.24,90.24,0,0,1,79.27,89.45Zm223.57,0H404.74a19.91,19.91,0,0,1,0-39.81H524.17a19.91,19.91,0,1,1,0,39.81Zm0-61.93H404.74a19.91,19.91,0,0,1,0-39.81H524.17a19.91,19.91,0,1,1,0,39.81Zm0-61.92H404.74a19.91,19.91,0,0,1,0-39.81H524.17a19.91,19.91,0,1,1,0,39.81Z"/><path d="M413.59,252c-8.85,0-16.06-6.08-16.06-13.55S404.74,225,413.59,225s16.05,6.07,16.05,13.54a11.06,11.06,0,0,0,22.12,0c0-16.07-11.44-29.69-27.11-34.13v-1.65a11.06,11.06,0,0,0-22.12,0v1.65c-15.67,4.44-27.11,18.06-27.11,34.13,0,19.67,17.12,35.67,38.17,35.67,8.85,0,16.05,6.08,16.05,13.55s-7.2,13.54-16.05,13.54-16.06-6.07-16.06-13.54a11.06,11.06,0,1,0-22.11,0c0,16.07,11.44,29.69,27.11,34.13v.71a11.06,11.06,0,0,0,22.12,0v-.71c15.67-4.44,27.11-18.06,27.11-34.13C451.76,268,434.64,252,413.59,252Z"/></g></g></svg>