<svg xmlns="http://www.w3.org/2000/svg" viewBox="0 0 72.26 100"><defs><style>.cls-1{fill:#ff3e58;}</style></defs><title>Asset 34</title><g id="Layer_2" data-name="Layer 2"><g id="Layer_3" data-name="Layer 3"><path class="cls-1" d="M44.33,11.72l-.72-2.11a4.19,4.19,0,0,1,1.16-4.47l2-1.8,17,11.73,6.78,19.58L67.19,50.11,57.28,66l-3.37-1.69a7.19,7.19,0,0,1-4-6.38h0L61.4,40.36,57.74,21.1Z"/><polygon class="cls-1" points="49.19 69.17 23.75 69.17 23.75 89.56 36.13 81.09 49.19 89.56 49.19 69.17"/><path d="M36.13,12.75a2.12,2.12,0,0,0,2.12-2v-.09a2.13,2.13,0,1,0-4.25,0,.28.28,0,0,0,0,.09A2.12,2.12,0,0,0,36.13,12.75Z"/><path d="M14,99.79a2.12,2.12,0,0,0,2.24-.26L36.13,83.59,56.05,99.53a2.13,2.13,0,0,0,3.46-1.66V63.65a36.13,36.13,0,1,0-46.76,0V97.87A2.12,2.12,0,0,0,14,99.79Zm3-33a37,37,0,0,0,4.25,2.29v21L17,93.45ZM34.8,79.21l-9.3,7.44v-16a36.08,36.08,0,0,0,21.25,0v16l-9.29-7.44A2.13,2.13,0,0,0,34.8,79.21ZM51,90.05v-21a36.36,36.36,0,0,0,4.26-2.29V93.45ZM4.25,36.13A31.86,31.86,0,1,1,36.13,68,31.91,31.91,0,0,1,4.25,36.13Z"/><path d="M36.13,63.76A27.63,27.63,0,0,0,45.21,10a2.13,2.13,0,0,0-1.4,4,23.38,23.38,0,1,1-15.36,0A2.13,2.13,0,0,0,27,10a27.63,27.63,0,0,0,9.09,53.73Z"/><path d="M36.34,38.1a2.13,2.13,0,1,1,0,4.25,3.85,3.85,0,0,1-2.76-1.6,2.12,2.12,0,0,0-3.25,2.73,8.82,8.82,0,0,0,3.89,2.77v2.48a2.13,2.13,0,0,0,4.25,0V46.24a6.38,6.38,0,0,0-2.13-12.39,2.13,2.13,0,0,1,0-4.25,3.45,3.45,0,0,1,2.3,1.11,2.13,2.13,0,0,0,3-3.05,8.14,8.14,0,0,0-3.13-2V23.23a2.13,2.13,0,1,0-4.25,0v2.49A6.37,6.37,0,0,0,36.34,38.1Z"/></g></g></svg>