<svg xmlns="http://www.w3.org/2000/svg" viewBox="0 0 375.57 565.56"><defs><style>.cls-1{fill:#ff3e58;}</style></defs><title>Asset 22</title><g id="Layer_2" data-name="Layer 2"><g id="Layer_3" data-name="Layer 3"><path class="cls-1" d="M230.42,60.9,226.68,50a21.87,21.87,0,0,1,6-23.27L243,17.35l88.37,61,35.25,101.75-17.42,80.38-51.47,82.36-17.51-8.76a37.45,37.45,0,0,1-20.71-33.17h0l59.6-91.11-19-100.1Z"/><polygon class="cls-1" points="255.65 359.53 123.46 359.53 123.46 511.29 187.78 467.27 255.65 511.29 255.65 359.53"/><path d="M187.78,66.28a11,11,0,0,0,11-10.59c0-.15,0-.3,0-.46a11,11,0,1,0-22.09,0c0,.16,0,.31,0,.46A11,11,0,0,0,187.78,66.28Z"/><path d="M72.54,564.47a11,11,0,0,0,11.68-1.33l103.56-82.85,103.56,82.85a11,11,0,0,0,18-8.63V330.85a186.94,186.94,0,0,0,66.28-143.07C375.57,84.24,291.33,0,187.78,0S0,84.24,0,187.78A186.94,186.94,0,0,0,66.28,330.85V554.51A11,11,0,0,0,72.54,564.47ZM88.37,347a187.67,187.67,0,0,0,22.09,11.87v155L88.37,531.53Zm92.51,110.5-48.33,38.66V367.27a187.91,187.91,0,0,0,110.46,0V496.18l-48.33-38.66A11,11,0,0,0,180.88,457.52Zm84.23,56.34v-155A187.67,187.67,0,0,0,287.2,347V531.53Zm-243-326.08c0-91.36,74.33-165.69,165.69-165.69S353.47,96.42,353.47,187.78A165.86,165.86,0,0,1,187.78,353.47C97,353.47,22.09,279.74,22.09,187.78Z"/><path d="M187.78,331.38c79,0,143.6-64.17,143.6-143.6A143.81,143.81,0,0,0,235,52.16,11,11,0,1,0,227.72,73a121.71,121.71,0,0,1,81.57,114.76c0,66.78-54.29,121.51-121.51,121.51-66.72,0-121.5-54.26-121.5-121.51A121.71,121.71,0,0,1,147.85,73a11,11,0,0,0-7.28-20.86A143.82,143.82,0,0,0,44.18,187.78C44.18,267.45,109.08,331.38,187.78,331.38Z"/><path d="M188.89,198.05a11,11,0,0,1,0,22.09c-4.72,0-9.82-3-14.35-8.36A11,11,0,1,0,157.63,226c5.91,7,12.85,11.92,20.21,14.38v12.9a11,11,0,0,0,22.09,0V240.33a33.14,33.14,0,0,0-11-64.38,11,11,0,1,1,0-22.09c3.91,0,8,2,12,5.77a11,11,0,0,0,15.36-15.87,42.72,42.72,0,0,0-16.27-10.17V120.72a11,11,0,0,0-22.09,0v12.95a33.14,33.14,0,0,0,11,64.38Z"/></g></g></svg>