<svg xmlns="http://www.w3.org/2000/svg" viewBox="0 0 21.99 24.95"><defs><style>.cls-1{fill:#ff3e58;}</style></defs><title>Asset 49</title><g id="Layer_2" data-name="Layer 2"><g id="Layer_3" data-name="Layer 3"><rect class="cls-1" x="14.57" y="22.13" width="3.85" height="1.71"/><polygon class="cls-1" points="8.79 20.41 10.14 24.45 11.97 24.45 13.19 20.41 12.22 17.94 9.41 17.73 8.79 20.41"/><path d="M7.7,15.28v1.19a12.91,12.91,0,0,1-2.14,1.37C.12,19.61,0,22.87,0,23H0V24.4A.55.55,0,0,0,.55,25H21.44A.55.55,0,0,0,22,24.4V23c0-.14-.08-3.43-5.56-5.18a13.15,13.15,0,0,1-2.14-1.37V15.28C11.65,16.17,7.7,15.28,7.7,15.28Zm5.49.51v.7a4,4,0,0,1-1.08.77,2.5,2.5,0,0,1-2.23,0,4.1,4.1,0,0,1-1.09-.77v-.7a6.9,6.9,0,0,0,4.4,0ZM1.1,23.85V23a3.13,3.13,0,0,1,.62-1.48,8.43,8.43,0,0,1,4.22-2.68,18,18,0,0,0,2.29-1.41A5.66,5.66,0,0,0,9,18l-.7,2.08a.69.69,0,0,0,0,.35l1.14,3.4Zm9.47,0-1.2-3.58.6-1.8a3.6,3.6,0,0,0,1,.15,3.5,3.5,0,0,0,1-.15l.6,1.8-1.19,3.58Zm10.32,0H12.58l1.13-3.4a.53.53,0,0,0,0-.35L13,18a4.9,4.9,0,0,0,.74-.55,17.28,17.28,0,0,0,2.29,1.41,7.93,7.93,0,0,1,4.23,2.67A3,3,0,0,1,20.89,23Z"/><rect x="14.57" y="21.37" width="3.85" height="1.1"/><polygon class="cls-1" points="5.59 8.63 7.38 7.06 7.46 5.55 11.23 5.3 14.66 6.32 17.17 7.82 17.17 0.76 7.82 0.76 5.37 2.96 4.82 6.59 5.59 8.63"/><path d="M5.91,9.86V8.56a.54.54,0,0,0,0-.22,5,5,0,0,1-.51-2.21V5a4,4,0,0,1,4-4h7.33V6.13a5,5,0,0,1-.51,2.21.42.42,0,0,0-.05.22v1.5a5,5,0,0,1-1.61,3.71l-.4.34h0a5,5,0,0,1-3.41,1A5.2,5.2,0,0,1,5.91,9.86Zm1.19,4.9,1.05.71a6,6,0,0,0,2.44.71H11a6,6,0,0,0,2.83-.7l1.05-.69.31-.27a6.14,6.14,0,0,0,1.94-4.47V8.68a6.11,6.11,0,0,0,.56-2.55V.52A.52.52,0,0,0,17.16,0H9.31a5,5,0,0,0-5,5V6.13a6.11,6.11,0,0,0,.56,2.55V9.86a6.42,6.42,0,0,0,2.24,4.9"/><path d="M15.29,6.32c-2-2-6.13-1.6-7.83-1.35a1.08,1.08,0,0,0-.92,1.08v1.2a.53.53,0,0,0,.53.53.52.52,0,0,0,.52-.53V6.05s0,0,0,0A16.9,16.9,0,0,1,11,5.84a5.43,5.43,0,0,1,3.52,1.22.51.51,0,0,0,.74,0A.53.53,0,0,0,15.29,6.32Z"/></g></g></svg>