<svg xmlns="http://www.w3.org/2000/svg" viewBox="0 0 565.82 565.82"><defs><style>.cls-1{fill:#ff3e58;}</style></defs><title>Asset 31</title><g id="Layer_2" data-name="Layer 2"><g id="Layer_1-2" data-name="Layer 1"><circle class="cls-1" cx="44.2" cy="88.41" r="33.23"/><circle class="cls-1" cx="44.2" cy="480.91" r="33.23"/><path class="cls-1" d="M400.32,210.74c3.53,40.28-88.85,106.39-88.85,65.95,0-13.58-60.83-26.58-57.83-53.46,11.57-103.58,33.09-46.1,73.22-51C349.22,169.43,392.56,122.33,400.32,210.74Z"/><path d="M232.08,344.8a11.05,11.05,0,1,0,11,11.05A11.06,11.06,0,0,0,232.08,344.8Z"/><path d="M232.08,411.11a11,11,0,1,0,11,11.05A11.06,11.06,0,0,0,232.08,411.11Z"/><path d="M422.16,344.8H276.28a11.05,11.05,0,1,0,0,22.1H422.16a11.05,11.05,0,0,0,0-22.1Z"/><path d="M422.16,411.11H276.28a11.05,11.05,0,1,0,0,22.1H422.16a11.05,11.05,0,0,0,0-22.1Z"/><path d="M33.15,536.35v18.42a11.06,11.06,0,0,0,22.11,0V536.35l4.42-5.89a144.61,144.61,0,0,0,28.73-86.2V132.61h11a11.06,11.06,0,0,1,11.05,11.06V245.34a11.05,11.05,0,0,0,22.1,0V143.67a33.19,33.19,0,0,0-33.15-33.16h-11V88.41a43.88,43.88,0,0,0-11-29.22v-26a33.16,33.16,0,0,0-66.31,0V59.2A44.2,44.2,0,0,0,0,88.41V444.26a144.59,144.59,0,0,0,28.73,86.2ZM66.31,433.21H22.1V132.61H66.31ZM22.1,110.51V88.41a22.11,22.11,0,0,1,44.21,0v22.1ZM44.2,22.1a11.07,11.07,0,0,1,11.06,11V45.62a43.74,43.74,0,0,0-22.11,0V33.15A11.07,11.07,0,0,1,44.2,22.1ZM65.79,455.31A122.36,122.36,0,0,1,44.2,514.15a122.45,122.45,0,0,1-21.58-58.84Z"/><path d="M565.82,179V123.77a44.25,44.25,0,0,0-44.2-44.2H210a55.31,55.31,0,0,0-55.25,55.25V477.41H121.56a11.05,11.05,0,0,0-11,11,77.45,77.45,0,0,0,77.36,77.36H444.26c32.35,0,55.25-27.54,55.25-57.62V190.08h55.26A11.05,11.05,0,0,0,565.82,179Zm-378,364.69a55.37,55.37,0,0,1-54.15-44.21H389v11.06a55,55,0,0,0,11.08,33.15ZM477.41,123.77V508.2c0,18.3-13.26,35.52-33.15,35.52a33.19,33.19,0,0,1-33.15-33.15V488.46a11.06,11.06,0,0,0-11.06-11H176.82V134.82A33.28,33.28,0,0,1,210,101.56H483.32A44.62,44.62,0,0,0,477.41,123.77ZM543.72,168H499.51V123.77a22.11,22.11,0,0,1,44.21,0Z"/><path d="M299.89,281.09c6.3,5.31,12.82,10.81,19.74,16.8a11,11,0,0,0,14.47,0c6.91-6,13.43-11.49,19.73-16.8C389,251.4,414.42,230,414.42,198.46c0-29.49-21.66-52.58-49.31-52.58-18.59,0-30.72,10-38.25,20.1-7.53-10.14-19.66-20.1-38.26-20.1-27.64,0-49.3,23.09-49.3,52.58C239.3,230,264.72,251.4,299.89,281.09ZM288.6,168c20.18,0,27.33,24.07,27.62,25.1a11.05,11.05,0,0,0,10.59,8h.06a11.09,11.09,0,0,0,10.63-8c.29-1,7.44-25.1,27.61-25.1,15.51,0,27.21,13.1,27.21,30.48,0,21.22-19.86,38-52.75,65.74-4.12,3.48-8.34,7-12.71,10.77-4.37-3.74-8.59-7.29-12.71-10.78-32.89-27.75-52.75-44.51-52.75-65.73C261.4,181.08,273.1,168,288.6,168Z"/></g></g></svg>