<svg xmlns="http://www.w3.org/2000/svg" viewBox="0 0 565.96 565.98"><defs><style>.cls-1{fill:#ff3e58;}</style></defs><title>Asset 18</title><g id="Layer_2" data-name="Layer 2"><g id="Layer_1-2" data-name="Layer 1"><circle class="cls-1" cx="418.94" cy="282.99" r="40.19"/><rect class="cls-1" x="12.66" y="326.6" width="73.56" height="230.02" rx="10.55" ry="10.55"/><path d="M94,502.89a11,11,0,1,0,3.24,7.82A11.09,11.09,0,0,0,94,502.89Z"/><path d="M519,202.22a11,11,0,1,0,3.25,7.82A11.12,11.12,0,0,0,519,202.22Z"/><path d="M562.72,3.24A11.06,11.06,0,0,0,554.9,0H283a11.06,11.06,0,0,0-11.06,11.06V42.68L167.14,70.76a11.05,11.05,0,0,0-7.81,13.53L213.63,287l-47,47a33.15,33.15,0,0,0-27.37-14.47H33.16A33.2,33.2,0,0,0,0,352.63V532.81A33.21,33.21,0,0,0,33.16,566H139.28a33.21,33.21,0,0,0,32.18-25.19l13.15,11.47A55.71,55.71,0,0,0,221.22,566H554.91A11.06,11.06,0,0,0,566,554.92V11.05A11,11,0,0,0,562.72,3.24ZM150.33,532.81a11.07,11.07,0,0,1-11.05,11.06H33.16a11.07,11.07,0,0,1-11-11.06V352.63a11.07,11.07,0,0,1,11-11.05h42V468.92a11,11,0,0,0,22.1,0V341.58h42a11.07,11.07,0,0,1,11.05,11.05V532.81ZM183.54,89.25l88.38-23.68v41l-7.4,2a11,11,0,0,0-7.82,13.54,29.8,29.8,0,0,1-21,36.46,11.07,11.07,0,0,0-7.81,13.56l43.09,159.55H248.75l-11.44-44.73a11,11,0,0,0-1.85-3.88Zm88.38,68V250.5l-20.16-74.66A51.59,51.59,0,0,0,271.92,157.22ZM430.73,543.87H221.21a33.6,33.6,0,0,1-22.08-8.28l-26.69-23.28V359.42l48.26-48.26,8.75,34.25a11.06,11.06,0,0,0,10.71,8.32H457.49a15.48,15.48,0,1,1,0,30.95H346.13a11.06,11.06,0,0,0,0,22.11h146a15.48,15.48,0,1,1,0,30.95h-146a11.06,11.06,0,0,0,0,22.11H468.44a15.48,15.48,0,1,1,0,30.95H346.13a11.06,11.06,0,0,0,0,22.11h84.6a15.48,15.48,0,1,1,0,31Zm113.12,0H465a37.42,37.42,0,0,0,0-31h3.47A37.56,37.56,0,0,0,502,458.51a37.56,37.56,0,0,0,20.23-58.63V259.78a11.06,11.06,0,0,0-22.11,0V385.57a37.56,37.56,0,0,0-8.06-.88h-.36a37.57,37.57,0,0,0-34.24-53.06H439.72a52.9,52.9,0,1,0-41.56,0H337.73V121.44a52,52,0,0,0,39.63-39.63h83.15a52,52,0,0,0,39.64,39.63v34.37a11.05,11.05,0,1,0,22.1,0V111.58a11.06,11.06,0,0,0-11.05-11.06,29.79,29.79,0,0,1-29.76-29.76A11.06,11.06,0,0,0,470.38,59.7H367.5a11.06,11.06,0,0,0-11.06,11.06,29.79,29.79,0,0,1-29.76,29.76,11.06,11.06,0,0,0-11.05,11.06V331.63H294V22.12H543.85ZM418.94,313.78A30.8,30.8,0,1,1,449.74,283,30.82,30.82,0,0,1,418.94,313.78Z"/></g></g></svg>