<svg xmlns="http://www.w3.org/2000/svg" viewBox="0 0 449.24 566.93"><defs><style>.cls-1{fill:#ff3e58;}.cls-2{fill:#fff;}</style></defs><title>Asset 29</title><g id="Layer_2" data-name="Layer 2"><g id="Layer_3" data-name="Layer 3"><path d="M380.83,213.76A11.12,11.12,0,0,0,392,224.88h36.42a11.12,11.12,0,0,0,0-22.23H392A11.11,11.11,0,0,0,380.83,213.76Z"/><path class="cls-1" d="M398.31,391.53C378,333.92,379,451.29,300.83,499.66c-79.47,49.2-163.15,15.71-163.15,50.59,0,14.86,164.35,9.14,198.6-11.58C410.16,494,407.88,418.69,398.31,391.53Z"/><path class="cls-2" d="M283.37,217.17a8.11,8.11,0,0,1-3.81-1c-35.94-19-73.94-19-109.88,0-6.47,3.42-13.42-2.34-15.52-12.89s1.44-21.88,7.91-25.3c40.92-21.67,84.18-21.67,125.11,0,6.47,3.42,10,14.75,7.91,25.3C293.4,211.77,288.56,217.17,283.37,217.17Z"/><path class="cls-1" d="M272.65,52l5.74-25.72a103.11,103.11,0,0,0-107.54,0l6,25.64a139.08,139.08,0,0,0-51,32.52c11.91,28,25.44,58.54,39.88,91.72a137.39,137.39,0,0,1,37.12-12.44,123.34,123.34,0,0,1,44.76.21,137.77,137.77,0,0,1,36,12.23c14.43-33.18,28-63.75,39.88-91.72A139.21,139.21,0,0,0,272.65,52Z"/><path d="M329.78,169.84a11.11,11.11,0,0,0,15.72,0l57.26-57.25A11.12,11.12,0,0,0,387,96.87l-57.25,57.25A11.12,11.12,0,0,0,329.78,169.84Z"/><path d="M446,314.94l-57.26-57.25A11.11,11.11,0,1,0,373,273.4l57.25,57.26A11.12,11.12,0,0,0,446,314.94Z"/><path d="M103.74,169.84a11.12,11.12,0,1,0,15.72-15.72L62.21,96.87a11.12,11.12,0,1,0-15.73,15.72Z"/><path d="M76.23,257.69a11.1,11.1,0,0,0-15.72,0L3.26,314.94A11.12,11.12,0,1,0,19,330.66L76.23,273.4A11.11,11.11,0,0,0,76.23,257.69Z"/><path d="M296.58,221.68a32.44,32.44,0,0,0,8-16.22c2.56-12.86-1-26.05-8.51-33.48,9.05-20.71,29.38-67.24,36.18-83.22a11.1,11.1,0,0,0-2.37-12.21A149.3,149.3,0,0,0,284.14,45.2l3.69-16.53a11.11,11.11,0,0,0-5-11.88,114.16,114.16,0,0,0-119.19,0,11.12,11.12,0,0,0-5,12l3.81,16.36a149.48,149.48,0,0,0-45.88,31.42,11.1,11.1,0,0,0-2.37,12.21c6.81,16,27.13,62.51,36.18,83.22-7.48,7.43-11.07,20.62-8.51,33.48a32.34,32.34,0,0,0,8,16.24L49.37,368.54c-26.19,38.27-30.75,79.37-12.83,115.73C47.77,507.05,67.39,526.65,93.27,541c26.13,14.43,58.09,23,92.44,24.94,12.44.69,25.06,1,37.51,1s25.07-.35,37.51-1C295.07,564,327,555.38,353.16,541c25.89-14.3,45.51-33.9,56.73-56.68,17.92-36.36,13.36-77.46-12.83-115.73Zm-25.25-21A127,127,0,0,0,227,190.79a122.11,122.11,0,0,0-43.9,6.84c-3.91,1.35-7.75,2.9-11.52,4.59-1.95.88-3.87,1.82-5.79,2.77-.48.23-.46.33-.78,0a3.33,3.33,0,0,1-.45-1,16.43,16.43,0,0,1-.86-2.93c-1.31-6.61,1-12.3,2.3-13.34a134.41,134.41,0,0,1,22.14-9.32,114.25,114.25,0,0,1,67.38-.89,134.65,134.65,0,0,1,25,10.21c1.3,1,3.61,6.73,2.29,13.34a15.28,15.28,0,0,1-1.08,3.44c-.27.57-.28.79-.87.5l-1.86-.92C276.46,202.91,273.91,201.75,271.33,200.67ZM308.76,87.16c-7.2,16.79-29.2,67.06-32.31,74.2h0a149.17,149.17,0,0,0-16.89-5.79l19.67-88.18A126.76,126.76,0,0,1,308.76,87.16ZM223.22,22.23a91.51,91.51,0,0,1,41.11,9.69l-3.87,17.32c0,.1-.06.2-.08.3L237.59,151.35a133.19,133.19,0,0,0-27.66-.12L182.17,31.88A91.61,91.61,0,0,1,223.22,22.23Zm-55.66,45,20.47,88a150.45,150.45,0,0,0-17.91,6.06l-.13.05c-3.12-7.12-25.11-57.39-32.31-74.2A127,127,0,0,1,167.56,67.22ZM390,474.44c-19.39,39.35-69.38,65.89-130.45,69.26-12,.66-24.24,1-36.28,1s-24.26-.34-36.29-1c-61.07-3.37-111.06-29.91-130.45-69.26-14.21-28.83-10.22-62,11.24-93.35L174,225.73a110.47,110.47,0,0,1,36.89-11.87,98.36,98.36,0,0,1,40.54,3.33,118.66,118.66,0,0,1,21,8.54L378.71,381.09C400.17,412.45,404.16,445.6,390,474.44Z"/><path d="M254.58,387a59.08,59.08,0,0,0-18.84-5.83v-51a31.5,31.5,0,0,1,17.93,28.4,11.12,11.12,0,1,0,22.23,0,53.8,53.8,0,0,0-40.16-52V294.51a11.12,11.12,0,0,0-22.23,0v11.07a53.87,53.87,0,0,0-31.08,16.88,47.77,47.77,0,0,0-11.87,40.79A45.74,45.74,0,0,0,194.67,396a58.92,58.92,0,0,0,18.84,5.83v51a31.51,31.51,0,0,1-17.94-28.41,11.12,11.12,0,0,0-22.23,0,53.8,53.8,0,0,0,40.17,52v12.09a11.12,11.12,0,1,0,22.23,0V477.47a53.9,53.9,0,0,0,31.07-16.88,47.76,47.76,0,0,0,11.88-40.78A45.79,45.79,0,0,0,254.58,387Zm-49.66-10.73a23.36,23.36,0,0,1-12.48-17,25.7,25.7,0,0,1,6.44-21.92,31.67,31.67,0,0,1,14.63-9.08v51A34.12,34.12,0,0,1,204.92,376.29Zm45.44,69.35a31.59,31.59,0,0,1-14.62,9.08v-51a34,34,0,0,1,8.58,3,23.37,23.37,0,0,1,12.48,17A25.7,25.7,0,0,1,250.36,445.64Z"/><path d="M356.64,207.6a11.11,11.11,0,1,0-1.38,14A11.21,11.21,0,0,0,356.64,207.6Z"/><path d="M20.58,224.88H57a11.12,11.12,0,1,0,0-22.23H20.58a11.12,11.12,0,0,0,0,22.23Z"/><path d="M110.79,207.6a11.1,11.1,0,1,0-1.26,13.9A11.2,11.2,0,0,0,110.79,207.6Z"/></g></g></svg>