<svg xmlns="http://www.w3.org/2000/svg" viewBox="0 0 260.93 260.93"><defs><style>.cls-1{fill:#fff;}.cls-2{fill:#fbbb00;}.cls-3{fill:#518ef8;}.cls-4{fill:#28b446;}.cls-5{fill:#f14336;}</style></defs><title>google icon</title><g id="Layer_2" data-name="Layer 2"><g id="Layer_1-2" data-name="Layer 1"><circle class="cls-1" cx="130.47" cy="130.47" r="130.47"/><path class="cls-2" d="M69.19,153.43,61.53,182l-28,.59a110.29,110.29,0,0,1-.81-102.77h0l24.93,4.57L68.57,109.2a65.71,65.71,0,0,0,.62,44.23Z"/><path class="cls-3" d="M238.6,109.91a110,110,0,0,1-39.23,106.38h0L168,214.68l-4.45-27.74a65.63,65.63,0,0,0,28.23-33.5H132.88V109.91H238.6Z"/><path class="cls-4" d="M199.36,216.29h0A110.1,110.1,0,0,1,33.52,182.62l35.67-29.19a65.45,65.45,0,0,0,94.32,33.51Z"/><path class="cls-5" d="M200.71,45.75,165.06,74.93A65.45,65.45,0,0,0,68.57,109.2L32.72,79.85h0a110.08,110.08,0,0,1,168-34.1Z"/></g></g></svg>